<?xml version="1.0" encoding="UTF-8" standalone="no"?>
<!-- Created with Inkscape (http://www.inkscape.org/) -->

<svg
   width="26.175076mm"
   height="19.870331mm"
   viewBox="0 0 26.175076 19.870331"
   version="1.1"
   id="svg5"
   xml:space="preserve"
   inkscape:version="1.2.2 (b0a8486541, 2022-12-01)"
   sodipodi:docname="city_small.svg"
   xmlns:inkscape="http://www.inkscape.org/namespaces/inkscape"
   xmlns:sodipodi="http://sodipodi.sourceforge.net/DTD/sodipodi-0.dtd"
   xmlns="http://www.w3.org/2000/svg"
   xmlns:svg="http://www.w3.org/2000/svg"><sodipodi:namedview
     id="namedview7"
     pagecolor="#505050"
     bordercolor="#eeeeee"
     borderopacity="1"
     inkscape:showpageshadow="0"
     inkscape:pageopacity="0"
     inkscape:pagecheckerboard="0"
     inkscape:deskcolor="#505050"
     inkscape:document-units="mm"
     showgrid="false"
     inkscape:zoom="1.9175014"
     inkscape:cx="510.2995"
     inkscape:cy="-67.535805"
     inkscape:window-width="2880"
     inkscape:window-height="1558"
     inkscape:window-x="0"
     inkscape:window-y="0"
     inkscape:window-maximized="1"
     inkscape:current-layer="layer1" /><defs
     id="defs2" /><g
     inkscape:label="Layer 1"
     inkscape:groupmode="layer"
     id="layer1"
     transform="translate(-6.2377891,-326.82959)"><path
       d="m 6.6199099,341.0634 c 0,-3.63013 -0.068023,-5.63625 -0.1910568,-5.63625 -0.1050892,0 -0.191064,-0.30092 -0.191064,-0.66871 0,-0.61313 0.046865,-0.6687 0.5636819,-0.6687 0.3331254,0 0.6456634,0.13676 0.7640972,0.33435 0.1908691,0.31843 0.2127997,0.31843 0.4604414,0 0.3240629,-0.41669 1.268732,-0.45226 1.268732,-0.0478 0,0.15762 0.1289622,0.28659 0.2865852,0.28659 0.1576229,0 0.2865924,-0.12897 0.2865924,-0.28659 0,-0.20016 0.2016718,-0.28659 0.6687058,-0.28659 0.632846,0 0.668706,0.0347 0.668706,0.64826 0,0.39999 -0.109761,0.69039 -0.286592,0.75825 -0.217306,0.0834 -0.286585,0.43612 -0.286585,1.45909 v 1.34912 l 2.436007,-0.0534 2.435999,-0.0534 0.0351,-4.36779 c 0.03358,-4.17288 0.01863,-4.37211 -0.334353,-4.46441 -0.316581,-0.0828 -0.369476,-0.27122 -0.369476,-1.31623 v -1.2196 h 1.146355 c 1.018982,0 1.146356,0.0425 1.146356,0.38212 0,0.28022 0.127373,0.38212 0.477649,0.38212 0.350275,0 0.477649,-0.1019 0.477649,-0.38212 0,-0.34293 0.127374,-0.38212 1.241883,-0.38212 1.11451,0 1.241884,0.0392 1.241884,0.38212 0,0.28022 0.127374,0.38212 0.477649,0.38212 0.350276,0 0.47765,-0.1019 0.47765,-0.38212 0,-0.33966 0.127373,-0.38212 1.146355,-0.38212 h 1.146355 v 1.24188 c 0,1.11452 -0.03921,1.24189 -0.382121,1.24189 -0.371289,0 -0.382113,0.12737 -0.382113,4.4956 v 4.4956 l 2.435999,-0.0534 2.436007,-0.0534 0.05654,-1.29227 c 0.04491,-1.02563 -0.0043,-1.31567 -0.238825,-1.40563 -0.186161,-0.0714 -0.29538,-0.35305 -0.29538,-0.76161 0,-0.6135 0.03589,-0.64826 0.668706,-0.64826 0.467034,0 0.668713,0.0864 0.668713,0.28658 0,0.15762 0.128962,0.28659 0.286585,0.28659 0.157623,0 0.286593,-0.12897 0.286593,-0.28659 0,-0.41428 1.073942,-0.37565 1.327916,0.0478 0.191006,0.31843 0.210106,0.31843 0.401105,0 0.118506,-0.19757 0.431174,-0.33436 0.764242,-0.33436 0.513452,0 0.563682,0.0578 0.563682,0.64827 0,0.39998 -0.109761,0.69038 -0.286592,0.75824 -0.245635,0.0942 -0.286586,0.90252 -0.286586,5.65669 v 5.54671 h -5.349656 -5.349663 v -1.3344 c 0,-1.18973 -0.0577,-1.39894 -0.531894,-1.9297 -0.706588,-0.79081 -1.763575,-0.83223 -2.497921,-0.0979 -0.42913,0.42912 -0.507349,0.69405 -0.569747,1.9297 l -0.07233,1.43228 H 12.044167 6.6198666 Z m 3.4390661,1.9402 c 0,-0.58489 -0.1118337,-0.93137 -0.3785319,-1.17272 -0.5465461,-0.49462 -0.9080579,-0.10843 -0.988783,1.05627 l -0.06564,0.94684 0.7164739,-1.2e-4 0.716474,-1.1e-4 z m 3.439066,0 c 0,-0.58751 -0.111689,-0.93123 -0.382121,-1.17597 -0.368747,-0.33371 -0.395487,-0.33371 -0.764234,0 -0.270432,0.24474 -0.382121,0.58846 -0.382121,1.17597 v 0.83016 h 0.764242 0.764234 z m 12.609909,-0.11842 c 0,-0.76282 -0.07722,-0.9899 -0.394332,-1.15961 -0.615161,-0.32923 -0.94308,0.0798 -0.94308,1.17629 v 0.9319 h 0.668706 0.668706 z m 3.439066,0.11842 c 0,-0.59175 -0.111444,-0.93101 -0.388064,-1.18135 -0.366227,-0.33143 -0.40647,-0.33279 -0.714979,-0.0243 -0.207044,0.20704 -0.330439,0.64023 -0.336527,1.18135 l -0.0096,0.85444 h 0.724598 0.72459 z m -10.699319,-6.94046 c 0,-0.56394 -0.116918,-1.02169 -0.3176,-1.24343 -0.296781,-0.32794 -0.340614,-0.33012 -0.668706,-0.0332 -0.248732,0.22511 -0.351106,0.58765 -0.351106,1.24344 v 0.92568 h 0.668706 0.668706 z m 2.674831,-4.05166 c 0,-1.0965 -0.327926,-1.50551 -0.943087,-1.17629 -0.317109,0.16971 -0.394325,0.39679 -0.394325,1.15962 v 0.94857 h 0.668706 0.668706 z"
       style="fill:#000000;stroke-width:0.999997"
       id="path913" /></g></svg>
