<?xml version="1.0" encoding="UTF-8" standalone="no"?>
<!-- Created with Inkscape (http://www.inkscape.org/) -->

<svg
   width="36.421394mm"
   height="30.74688mm"
   viewBox="0 0 36.421394 30.74688"
   version="1.1"
   id="svg5"
   xml:space="preserve"
   inkscape:version="1.2.2 (b0a8486541, 2022-12-01)"
   sodipodi:docname="city_large.svg"
   xmlns:inkscape="http://www.inkscape.org/namespaces/inkscape"
   xmlns:sodipodi="http://sodipodi.sourceforge.net/DTD/sodipodi-0.dtd"
   xmlns="http://www.w3.org/2000/svg"
   xmlns:svg="http://www.w3.org/2000/svg"><sodipodi:namedview
     id="namedview7"
     pagecolor="#505050"
     bordercolor="#eeeeee"
     borderopacity="1"
     inkscape:showpageshadow="0"
     inkscape:pageopacity="0"
     inkscape:pagecheckerboard="0"
     inkscape:deskcolor="#505050"
     inkscape:document-units="mm"
     showgrid="false"
     inkscape:zoom="1.9175014"
     inkscape:cx="252.67257"
     inkscape:cy="-25.814844"
     inkscape:window-width="2880"
     inkscape:window-height="1558"
     inkscape:window-x="0"
     inkscape:window-y="0"
     inkscape:window-maximized="1"
     inkscape:current-layer="layer1" /><defs
     id="defs2" /><g
     inkscape:label="Layer 1"
     inkscape:groupmode="layer"
     id="layer1"
     transform="translate(-74.392984,-315.77572)"><path
       d="m 74.447474,339.24655 v -7.27605 h 0.79375 0.79375 v -5.55625 -5.55625 h -0.82099 -0.821 l 1.68089,-1.88123 c 0.92449,-1.03467 1.92367,-2.17819 2.22039,-2.54114 l 0.5395,-0.65991 2.17999,2.47499 2.18,2.475 -0.80126,0.0829 -0.80127,0.0829 v 5.53948 5.53949 h 0.92604 0.92605 v 1.85209 1.85209 h 21.034376 c 6.19465,-0.34412 6.2177,-0.4848 6.2177,5.42395 v 5.42396 H 92.571434 74.447474 Z m 5.5046,2.34221 c -0.0921,-1.4044 -0.68166,-2.01414 -1.4697,-1.52 -0.30865,0.19353 -0.48991,0.70031 -0.54367,1.52 l -0.0806,1.22967 h 1.08733 1.08733 z m 13.229167,3.70417 c -0.09216,-1.4044 -0.68166,-2.01414 -1.4697,-1.52 -0.30865,0.19353 -0.489943,0.7003 -0.54367,1.52 l -0.0806,1.22967 h 1.08733 1.08733 z m -3.704167,-3.70417 c -0.0921,-1.4044 -0.68166,-2.01414 -1.4697,-1.52 -0.30865,0.19353 -0.48991,0.70031 -0.54366,1.52 l -0.0806,1.22967 h 1.08733 1.08733 z m 4.7625,0 c -0.0921,-1.4044 -0.68166,-2.01414 -1.4697,-1.52 -0.30865,0.19353 -0.48991,0.70031 -0.54366,1.52 l -0.0806,1.22967 h 1.08733 1.08733 z m 4.81415,-0.0882 c 0,-1.18689 -0.0661,-1.33446 -0.66489,-1.48475 -0.97556,-0.24485 -1.45177,0.29454 -1.45177,1.6444 v 1.15823 h 1.05833 1.05833 z m 4.932166,0.91901 c 0.0842,-0.21938 0.0752,-0.81373 -0.0199,-1.32079 -0.19348,-1.03134 -1.16549,-1.51051 -1.873,-0.92332 -0.39342,0.32651 -0.55224,2.13139 -0.21705,2.46659 0.35007,0.35007 1.95518,0.18082 2.10994,-0.22248 z m 4.7625,0 c 0.0842,-0.21938 0.0752,-0.81373 -0.0199,-1.32079 -0.12896,-0.68744 -0.33911,-0.96362 -0.82626,-1.08588 -0.96306,-0.24172 -1.44017,0.30401 -1.44017,1.64731 v 1.15823 h 1.06663 c 0.70642,0 1.11833,-0.13471 1.2197,-0.39887 z m -28.797786,-6.42313 c -0.0907,-1.368 -0.68893,-1.97258 -1.46823,-1.48392 -0.30495,0.19121 -0.49005,0.69781 -0.54219,1.48392 l -0.0792,1.19359 h 1.08438 1.08438 z m 0.0531,-11.02808 c 0,-1.37245 -0.64599,-1.9684 -1.5875,-1.46452 -0.40787,0.21829 -0.52916,0.55399 -0.52916,1.46452 v 1.18132 h 1.05833 1.05833 z m 17.917661,13.50726 c -0.796399,0 -0.842924,-1.10759 -0.345821,-1.73955 0.279391,-0.35518 0.363321,-0.37538 1.560651,-0.37538 h 1.265395 l 0.0721,-0.463 c 0.0396,-0.25466 0.23594,-2.9312 0.43618,-5.94789 0.20024,-3.01668 0.37906,-5.70925 0.39736,-5.9835 0.0299,-0.44733 -0.007,-0.50324 -0.35693,-0.54355 -0.69917,-0.0805 -0.82072,-0.45834 -0.82072,-2.55113 v -1.89157 h 0.64109 0.64109 v 0.64109 0.64109 h 0.78355 0.78356 v -0.64109 -0.64109 h 0.85478 0.85479 v 0.64109 0.64109 h 0.78355 0.78355 v -0.64109 -0.64109 h 0.85479 0.85477 v 0.64109 0.64109 h 0.78356 0.78355 v -0.64109 -0.64109 h 0.64108 0.64109 v 1.89157 c 0,2.09279 -0.12156,2.47063 -0.82071,2.55113 -0.33711,0.0388 -0.38598,0.1031 -0.35898,0.47232 0.0172,0.23506 0.19797,2.99175 0.40174,6.12596 0.20376,3.13422 0.39927,5.84282 0.43446,6.01912 0.93077,7.27979 -2.27464,2.59663 -5.02744,2.59564 -4.96259,-0.003 -7.299375,-0.16017 -7.522074,-0.16017 z m 8.904015,-4.97128 c 2e-5,-1.48045 -0.19294,-1.99822 -0.8453,-2.26843 -0.50037,-0.20726 -0.97364,-0.12043 -1.45173,0.26636 -0.31117,0.25174 -0.34247,0.39596 -0.38714,1.78261 l -0.0486,1.50871 h 1.36638 1.36638 z m -2.84929,-5.6915 v -1.28218 h -0.64108 -0.64109 v 1.28218 1.28217 h 0.64109 0.64108 z m 4.13147,-1.9945 v -1.28218 h -0.71232 -0.71233 v 1.1872 c 0,0.65296 0.0427,1.22994 0.095,1.28218 0.0522,0.0522 0.37278,0.095 0.71232,0.095 h 0.61735 z m -20.752857,12.54363 v -7.26813 l -0.79375,-0.58684 c -0.756073,-0.55898 -0.79375,-0.67869 -0.79375,-2.52147 v -1.93461 h 1.05834 c 0.88194,0 1.05833,0.0882 1.05833,0.52916 0,0.45077 0.17639,0.52917 1.19062,0.52917 1.01424,0 1.19063,-0.0784 1.19063,-0.52917 0,-0.46502 0.17639,-0.52916 1.45521,-0.52916 1.27882,0 1.45521,0.0641 1.45521,0.52916 0,0.45077 0.17639,0.52917 1.19062,0.52917 1.01424,0 1.19063,-0.0784 1.19063,-0.52917 0,-0.44097 0.17639,-0.52916 1.05833,-0.52916 h 1.05833 l -0.002,1.91823 c -0.002,1.89426 -0.0134,1.92609 -0.92604,2.54764 l -0.92419,0.62942 v 7.24195 5.12526 h -4.23333 -4.23334 z m 9.78959,0.78584 v -5.42397 10.84793 z"
       style="fill:#000000;stroke-width:1"
       id="path1061"
       sodipodi:nodetypes="ccccccccsscccccccccccccccccssscccsssscccsssscccsssscccsssscccssssssssssscssssscccsssscccssssccsssscccccccccccccccccccccccccccssssccsssssscccscccccccccccccsssccccsscssssssssscsscccccccccc" /></g></svg>
