<?xml version="1.0" encoding="UTF-8" standalone="no"?>
<!-- Created with Inkscape (http://www.inkscape.org/) -->

<svg
   width="30.590601mm"
   height="25.53339mm"
   viewBox="0 0 30.590601 25.53339"
   version="1.1"
   id="svg5"
   xml:space="preserve"
   inkscape:version="1.2.2 (b0a8486541, 2022-12-01)"
   sodipodi:docname="city_medium.svg"
   xmlns:inkscape="http://www.inkscape.org/namespaces/inkscape"
   xmlns:sodipodi="http://sodipodi.sourceforge.net/DTD/sodipodi-0.dtd"
   xmlns="http://www.w3.org/2000/svg"
   xmlns:svg="http://www.w3.org/2000/svg"><sodipodi:namedview
     id="namedview7"
     pagecolor="#505050"
     bordercolor="#eeeeee"
     borderopacity="1"
     inkscape:showpageshadow="0"
     inkscape:pageopacity="0"
     inkscape:pagecheckerboard="0"
     inkscape:deskcolor="#505050"
     inkscape:document-units="mm"
     showgrid="false"
     inkscape:zoom="1.9175014"
     inkscape:cx="401.825"
     inkscape:cy="-43.02474"
     inkscape:window-width="2880"
     inkscape:window-height="1558"
     inkscape:window-x="0"
     inkscape:window-y="0"
     inkscape:window-maximized="1"
     inkscape:current-layer="layer1" /><defs
     id="defs2" /><g
     inkscape:label="Layer 1"
     inkscape:groupmode="layer"
     id="layer1"
     transform="translate(-35.040726,-320.57043)"><path
       d="m 35.933888,340.18665 v -5.91715 h 3.460979 3.460978 v 5.91715 5.91716 h -3.460978 -3.460979 z m 7.591824,2.56455 v -3.35261 l 6.7434,0.0591 6.743399,0.0591 -0.02236,0.61405 c -0.01232,0.33772 -0.03249,1.8198 -0.04473,3.29351 l -0.02236,2.67947 h -2.009602 -2.009601 v -1.51334 c 0,-2.5505 -1.304028,-3.7428 -3.446514,-3.15122 -1.188468,0.32814 -1.687246,1.26094 -1.688301,3.15736 l -8.36e-4,1.5072 h -2.121244 -2.121245 z m 14.290496,-2.56455 v -5.91715 h 3.460979 3.460987 v 5.91715 5.91716 h -3.460987 -3.460979 z m -12.055734,-1.61884 c 8.43e-4,-0.0921 0.201141,-2.27755 0.444707,-4.85654 0.243557,-2.57899 0.443678,-4.71419 0.444707,-4.74489 8.44e-4,-0.0307 1.659794,-0.0558 3.686139,-0.0558 3.393937,0 3.684273,0.0316 3.684273,0.40045 0,0.22025 0.200956,2.35109 0.446573,4.7352 0.245616,2.38412 0.44658,4.41447 0.44658,4.51191 0,0.0974 -2.05984,0.17716 -4.577426,0.17716 -2.517587,0 -4.576583,-0.0754 -4.575553,-0.16746 z m 3.794042,-2.51901 c 0,-0.83413 -0.09407,-1.15956 -0.365285,-1.26363 -0.653613,-0.25081 -1.082058,0.2501 -1.154146,1.34933 l -0.06802,1.03775 h 0.793748 0.793747 z m 2.635315,-3.62144 c -0.06237,-1.08356 -0.109736,-1.17227 -0.625713,-1.17227 -0.515986,0 -0.56333,0.0887 -0.625713,1.17227 l -0.06751,1.17227 h 0.69321 0.693202 z m -16.881158,0.90428 c -0.155865,-0.15586 -0.267947,-0.90309 -0.267947,-1.78631 v -1.51837 h 0.669867 c 0.521007,0 0.669867,0.0992 0.669867,0.44658 0,0.2481 0.148861,0.44658 0.334938,0.44658 0.186069,0 0.334929,-0.19848 0.334929,-0.44658 0,-0.37385 0.148861,-0.44658 0.914066,-0.44658 0.726267,0 0.938051,0.0918 1.03084,0.44658 0.06422,0.24562 0.255786,0.44658 0.425677,0.44658 0.169883,0 0.308886,-0.20096 0.308886,-0.44658 0,-0.37385 0.14886,-0.44658 0.914066,-0.44658 0.726267,0 0.93805,0.0918 1.03084,0.44658 0.06422,0.24562 0.255786,0.44658 0.425677,0.44658 0.169882,0 0.308885,-0.20096 0.308885,-0.44658 0,-0.34734 0.148861,-0.44658 0.669868,-0.44658 h 0.669867 v 1.43543 c 0,2.14667 0.01966,2.1372 -4.437074,2.1372 -2.607515,0 -3.816204,-0.0809 -4.003252,-0.26795 z m 22.005137,0.0267 c -0.312835,-0.18221 -0.390755,-0.53705 -0.390755,-1.77952 v -1.55193 h 0.669867 c 0.521007,0 0.669867,0.0992 0.669867,0.44658 0,0.2481 0.14886,0.44658 0.334929,0.44658 0.186078,0 0.334938,-0.19848 0.334938,-0.44658 0,-0.38042 0.14886,-0.44658 1.004797,-0.44658 0.855944,0 1.004805,0.0662 1.004805,0.44658 0,0.2481 0.14886,0.44658 0.334929,0.44658 0.186077,0 0.334938,-0.19848 0.334938,-0.44658 0,-0.38042 0.14886,-0.44658 1.004796,-0.44658 0.855945,0 1.004805,0.0662 1.004805,0.44658 0,0.2481 0.14886,0.44658 0.334929,0.44658 0.186078,0 0.334938,-0.19848 0.334938,-0.44658 0,-0.34734 0.14886,-0.44658 0.669867,-0.44658 h 0.669867 v 1.55517 c 0,1.30902 -0.06836,1.59175 -0.431896,1.78631 -0.561912,0.30072 -7.366952,0.29207 -7.885621,-0.01 z m -11.063968,-5.3857 c -0.173723,-0.17373 -0.267947,-1.07675 -0.267947,-2.56783 v -2.29988 h 0.770362 0.77037 l 0.06692,1.28391 0.06692,1.28392 h 0.893153 0.893162 l 0.06701,-1.28392 0.06692,-1.28391 h 0.770362 0.770371 v 1.33974 1.33973 h 0.893161 0.893154 v -1.33973 -1.33974 h 0.893153 0.893162 v 2.29988 c 0,1.49108 -0.09423,2.3941 -0.267947,2.56783 -0.187512,0.18751 -1.414169,0.26794 -4.086194,0.26794 -2.672025,0 -3.898681,-0.0804 -4.086185,-0.26794 z m 1.491961,-6.48379 2.541411,-0.91842 2.147659,0.74306 c 1.181203,0.40869 2.298368,0.82517 2.48258,0.92553 0.184213,0.10035 -1.925866,0.17927 -4.689069,0.17536 l -5.024008,-0.007 2.541427,-0.91842 z"
       style="fill:#000000;stroke-width:1"
       id="path995" /></g></svg>
